<svg width="76" height="74" viewBox="0 0 76 74" fill="none" xmlns="http://www.w3.org/2000/svg">
<g clip-path="url(#clip0_1780_1376)">
<path d="M13.9129 65.2959H11.8793L12.0209 65.537C12.2912 65.943 12.2912 66.5901 12.2912 67.1357V69.1659C12.2912 69.4578 12.2783 69.7496 12.2654 70.0541C12.2654 70.2445 12.2526 70.4348 12.2397 70.6378C12.214 71.4245 12.0724 71.9955 11.815 72.3381C11.5318 72.7441 11.0427 72.9471 10.3735 72.9471C9.09931 72.9471 8.48152 72.2873 8.44291 70.8916V67.1357C8.44291 66.5901 8.44291 65.943 8.70032 65.537L8.85477 65.2959H6.53809L6.7054 65.537C6.96281 65.943 6.96281 66.5901 6.96281 67.1357V71.6656C6.98855 72.465 7.24596 73.074 7.74791 73.4674C8.21124 73.8226 8.85477 74.0003 9.67848 74.0003C10.6566 74.0003 11.519 73.6958 12.2397 73.1121C12.214 73.3658 12.2011 73.8734 12.2011 73.8734L14.196 73.7592L14.0416 73.5435C13.7841 73.1628 13.7842 72.5284 13.7842 71.9574V67.1231C13.7842 66.5774 13.7841 65.9303 14.0416 65.5243L14.196 65.2832H13.9129V65.2959Z" fill="#231F20"/>
<path d="M22.0731 65.0799C22.0731 65.0799 21.7514 65.2956 21.0821 65.2956H15.3162L14.9043 66.8563L15.2775 66.5899C15.5478 66.3742 15.7924 66.3361 16.1012 66.3361H17.6714V71.9445C17.6714 72.5155 17.6714 73.1372 17.414 73.5559L17.2467 73.7843H19.5763L19.409 73.5559C19.1515 73.1499 19.1515 72.5155 19.1515 71.9445V66.3361H20.4257C20.7346 66.3361 21.1465 66.2346 21.5068 66.057C21.8157 65.9174 22.2018 65.6382 22.3305 65.2322L22.4335 64.8008L22.0731 65.0799Z" fill="#231F20"/>
<path d="M30.3489 65.2959H28.3025L28.4569 65.537C28.7143 65.943 28.7143 66.5901 28.7143 67.1357V69.1659C28.7143 69.4704 28.6886 69.775 28.6886 70.0795C28.6886 70.2698 28.6886 70.4602 28.6886 70.6378C28.6628 71.4245 28.5212 71.9955 28.251 72.3381C27.955 72.7441 27.4916 72.9471 26.8352 72.9471C25.561 72.9471 24.9433 72.2873 24.9047 70.8916V67.1357C24.9047 66.5901 24.9047 65.943 25.1749 65.537L25.3294 65.2959H23.0127L23.1671 65.537C23.4246 65.943 23.4246 66.5901 23.4246 67.1357V71.6656C23.4503 72.465 23.7206 73.074 24.2096 73.4674C24.6601 73.8226 25.3036 74.0003 26.1402 74.0003C27.1055 74.0003 27.9678 73.6958 28.7014 73.1121C28.6757 73.3658 28.65 73.8734 28.65 73.8734L30.6449 73.7592L30.4904 73.5435C30.233 73.1628 30.233 72.5284 30.233 71.9574V67.1231C30.233 66.5774 30.233 65.9303 30.4904 65.5243L30.6449 65.2832H30.3617L30.3489 65.2959Z" fill="#231F20"/>
<path d="M45.1493 72.3886C44.4929 72.9596 43.6177 72.8454 42.9999 72.8454H41.6871C41.6614 72.655 41.6614 72.4774 41.6614 72.2871V70.1427H41.8158C42.4079 70.1427 43.3989 70.1427 44.081 69.8382C44.377 69.7113 44.6345 69.3814 44.7374 69.191L44.982 68.785L44.5572 68.9626C44.287 69.0768 43.9137 69.1022 43.592 69.1149C43.1544 69.1403 42.7039 69.1276 42.2406 69.1149H41.6614V66.3488H42.9356C43.2316 66.3488 43.5019 66.3488 43.5019 66.3488C43.8494 66.3488 44.2355 66.2473 44.5701 66.057C44.879 65.9047 45.2265 65.5494 45.3809 65.2322C45.4968 65.0419 45.5097 64.8008 45.5097 64.8008C45.5097 64.8008 45.2265 65.0292 45.1364 65.0799C45.0463 65.1307 44.8146 65.2956 44.1325 65.2956H39.7566L39.8981 65.5367C40.1298 65.892 40.1555 66.3995 40.1684 66.9071V72.1348C40.1555 72.6297 40.1041 73.2006 39.8724 73.5559L39.7051 73.7843H43.7721C44.184 73.7843 45.1364 73.7843 45.1364 73.7843L45.175 73.594L45.4839 72.0967L45.1364 72.3886H45.1493Z" fill="#231F20"/>
<path d="M3.79696 66.3488C4.14446 66.3488 4.53057 66.2473 4.87807 66.057C5.1741 65.9047 5.5216 65.5494 5.68891 65.2322C5.77901 65.0419 5.81762 64.8008 5.81762 64.8008C5.81762 64.8008 5.54734 65.0292 5.45724 65.0799C5.36715 65.1307 5.13548 65.2956 4.45335 65.2956H0.025916L0.180361 65.5367C0.412029 65.9174 0.412029 66.4884 0.412029 67.0086V71.9572C0.412029 72.5281 0.412029 73.1499 0.15462 73.5686L-0.0126953 73.797H2.32973L2.14954 73.5686C1.89213 73.1626 1.89213 72.5281 1.89213 71.9572V70.1554H2.05945C2.63862 70.1554 3.62964 70.1554 4.2989 69.8508C4.59492 69.724 4.8652 69.3941 4.98104 69.2037L5.21271 68.7977L4.77511 68.9753C4.50483 69.0895 4.11872 69.1149 3.80983 69.1276C3.37223 69.153 2.9089 69.1403 2.45843 69.1276H1.87926V66.3615H3.20492C3.50094 66.3615 3.75835 66.3615 3.75835 66.3615L3.79696 66.3488Z" fill="#231F20"/>
<path d="M33.9526 65.2832C33.4249 65.3086 32.8972 65.3466 32.3438 65.3466H32.0477L32.2022 65.5877C32.4725 65.981 32.4725 66.6155 32.4725 67.1738V71.8939V71.9955C32.4725 72.503 32.4725 73.0359 32.1378 73.5562L31.9834 73.7846H34.3516L34.21 73.5562C33.9397 73.1501 33.9397 72.5157 33.9397 71.9701V69.8511C34.4159 69.9018 34.5575 70.0287 34.8535 70.5363C35.1624 71.0311 36.6168 73.0486 36.6168 73.0486C36.9128 73.4927 37.3246 73.8099 37.8266 73.8226C38.5216 73.8226 39.2938 73.7338 39.2938 73.7338C38.7018 73.3151 38.277 72.8202 37.8781 72.2492C36.2178 69.9399 36.2049 69.9272 35.6257 69.5085C36.1406 69.3816 36.8227 69.0517 37.2088 68.6457C37.6207 68.1889 37.8523 67.6686 37.8523 67.085C37.8523 66.552 37.6593 66.0699 37.2989 65.7527C36.9128 65.4101 36.3465 65.2324 35.6772 65.2324C35.1881 65.2324 34.4803 65.2578 33.9526 65.2959V65.2832ZM34.5317 66.2348C35.8059 66.2348 36.4237 66.3744 36.4237 67.3768C36.4237 68.4173 35.6129 68.9629 34.4674 68.9629C34.313 68.9629 34.0684 68.9502 33.9268 68.9375V66.6155V66.4251V66.2983C34.1199 66.2729 34.5317 66.2475 34.5317 66.2475V66.2348Z" fill="#231F20"/>
<path d="M56.9254 65.3086H55.2394L55.2137 65.8034C55.2137 66.2476 54.6731 67.6687 53.7979 69.5339C53.0257 71.2215 52.1891 72.7441 51.8287 73.1755L51.3525 73.7846H53.4633L53.4376 73.6069C53.4118 73.4547 53.3989 73.3151 53.3989 73.1502C53.3989 72.4777 53.9395 71.2976 54.4801 70.2064H57.1957C57.2729 70.3967 58.6115 73.7846 58.6115 73.7846H60.3747L59.9886 73.0867C58.8431 70.9931 58.058 68.5949 57.3244 66.2856L57.0027 65.3213H56.8997L56.9254 65.3086ZM55.9087 66.8312C55.9344 66.7424 55.9602 66.7043 55.973 66.679C55.9859 66.717 56.0116 66.7678 56.0374 66.8439C56.0374 66.8439 56.7581 69.0517 56.874 69.3816H54.8404C54.982 69.0264 55.8701 66.8566 55.8701 66.8566L55.8958 66.8312H55.9087Z" fill="#B2BB1E"/>
<path d="M74.9445 65.3076H73.1298L73.1813 65.5106C73.1813 65.5487 73.1813 65.6375 73.1813 65.7136C73.1813 65.9674 72.7694 66.6145 72.1388 67.3378L72.0873 67.3885C71.5467 68.023 71.2378 68.7082 70.7101 68.9239V67.1348C70.7101 66.5765 70.7101 65.942 70.9675 65.536L71.1349 65.2949H68.8311L68.9726 65.536C69.2429 65.942 69.2429 66.5765 69.2429 67.1348V71.9564C69.2429 72.5021 69.2429 73.1365 68.9726 73.5425L68.8311 73.7709H71.1349L70.9675 73.5425C70.7101 73.1365 70.7101 72.5021 70.7101 71.9564V69.939C70.7745 70.0405 73.3872 73.3522 73.3872 73.3522C73.5803 73.5806 73.7862 73.6948 74.005 73.7709C74.2495 73.847 74.6871 73.8344 75.0089 73.809C75.4079 73.7836 75.9999 73.7075 75.9999 73.7075C75.9999 73.7075 75.691 73.5425 75.5366 73.3776C75.3692 73.2507 74.7515 72.6163 74.301 72.1214C73.902 71.6519 72.2546 69.6852 71.8814 69.1523C72.0358 68.9746 73.4773 67.1855 73.4773 67.1855C73.9149 66.6907 74.2366 66.2719 74.7 65.8913L75.3692 65.3076H74.9574H74.9445Z" fill="#B2BB1E"/>
<path d="M48.8431 65.2578C48.3411 65.2832 47.8134 65.3085 47.3115 65.3085H47.0283L47.1828 65.5496C47.4402 65.9556 47.4402 66.5901 47.4402 67.1484V71.9701V72.0081C47.4402 72.4903 47.4402 73.1501 47.1828 73.5561L47.0283 73.7845H49.3965L49.242 73.5561C48.9203 73.0866 48.9203 72.2238 48.9203 71.9701V69.8003C48.9203 69.8003 49.1391 69.8764 49.2935 69.9399C49.5381 70.0287 49.9499 70.0794 50.3103 70.0794C51.8805 70.0794 52.923 69.1151 52.923 67.491C52.923 66.8058 52.7042 66.2348 52.2923 65.8288C51.8419 65.41 51.1855 65.1816 50.3618 65.1816C49.8598 65.1816 49.3321 65.2197 48.8559 65.2578H48.8431ZM49.7955 66.0064C50.838 66.0064 51.2627 66.4886 51.2627 67.6179C51.2627 69.3435 50.0915 69.4958 49.4866 69.61C49.2292 69.6607 49.0104 69.6353 48.9074 69.6353V65.9937H49.7955V66.0064Z" fill="#B2BB1E"/>
<path d="M63.0131 65.2832C62.4854 65.3086 61.9449 65.3466 61.3914 65.3466H61.0954L61.2627 65.5877C61.5073 65.981 61.5073 66.6155 61.5073 67.1738V71.8939V71.9955C61.5073 72.503 61.5073 73.0359 61.1984 73.5562L61.0439 73.7846H63.4121L63.2705 73.5562C63.0003 73.1501 63.0003 72.5157 63.0003 71.9701V69.8511C63.4636 69.9018 63.618 70.0287 63.9012 70.5363C64.1972 71.0311 65.6516 73.0486 65.6516 73.0486C65.9476 73.4927 66.3723 73.8099 66.8743 73.8226C67.5693 73.8226 68.3415 73.7338 68.3415 73.7338C67.7623 73.3151 67.3119 72.8202 66.9129 72.2492C65.2783 69.9399 65.2526 69.9272 64.6605 69.5085C65.1754 69.3816 65.8704 69.0517 66.2307 68.6457C66.6683 68.1889 66.8871 67.6686 66.8871 67.085C66.8871 66.552 66.6941 66.0699 66.3337 65.7527C65.9476 65.4101 65.3942 65.2324 64.7249 65.2324C64.2101 65.2324 63.5022 65.2578 62.9874 65.2959L63.0131 65.2832ZM63.6052 66.2348C64.8793 66.2348 65.4971 66.3744 65.4971 67.3768C65.4971 68.3792 64.6992 68.9629 63.5279 68.9629C63.3735 68.9629 63.1547 68.9502 63.0131 68.9375V66.6155V66.4251V66.2983C63.1933 66.2729 63.6052 66.2475 63.618 66.2475L63.6052 66.2348Z" fill="#B2BB1E"/>
<path d="M56.231 20.1621C56.231 20.1621 60.6198 32.3559 39.731 39.1316C28.0189 42.9255 23.9004 44.8668 21.6481 50.8559C20.2452 54.6117 21.6995 60.8926 21.6995 60.8926C21.6995 60.8926 19.1126 57.289 18.4562 51.8075C17.8513 46.5798 18.9067 38.992 32.4078 34.9317C56.1537 27.7753 56.231 20.1748 56.231 20.1748V20.1621Z" fill="url(#paint0_linear_1780_1376)"/>
<path d="M34.5311 27.75C21.6221 33.1427 20.8498 39.5885 20.8498 39.5885C20.8498 39.5885 18.353 25.6564 38.2121 19.9211C58.187 14.1351 56.6554 0 56.6554 0C56.6554 0 61.7006 11.8131 53.2447 19.6293C51.1597 21.5326 49.1005 23.0172 44.8918 24.4129C41.0178 25.7071 37.2854 26.608 34.544 27.7373L34.5311 27.75Z" fill="url(#paint1_linear_1780_1376)"/>
</g>
<defs>
<linearGradient id="paint0_linear_1780_1376" x1="17.4266" y1="40.5273" x2="56.5913" y2="40.5273" gradientUnits="userSpaceOnUse">
<stop stop-color="#728012"/>
<stop offset="0.17" stop-color="#A7B01B"/>
<stop offset="0.35" stop-color="#B2BB1E"/>
<stop offset="0.39" stop-color="#BCC444"/>
<stop offset="0.46" stop-color="#CBD37E"/>
<stop offset="0.52" stop-color="#D6DEA8"/>
<stop offset="0.56" stop-color="#DDE5C2"/>
<stop offset="0.59" stop-color="#E0E8CC"/>
<stop offset="0.72" stop-color="#B2BB1E"/>
<stop offset="0.85" stop-color="#A7B01B"/>
<stop offset="1" stop-color="#728012"/>
</linearGradient>
<linearGradient id="paint1_linear_1780_1376" x1="21.1845" y1="19.7816" x2="57.8395" y2="19.7816" gradientUnits="userSpaceOnUse">
<stop stop-color="#595959"/>
<stop offset="0.04" stop-color="#636363"/>
<stop offset="0.19" stop-color="#8C8C8C"/>
<stop offset="0.35" stop-color="#BFBFBF"/>
<stop offset="0.5" stop-color="#F2F2F2"/>
<stop offset="0.69" stop-color="#BFBFBF"/>
<stop offset="0.86" stop-color="#8C8C8C"/>
<stop offset="1" stop-color="#595959"/>
</linearGradient>
<clipPath id="clip0_1780_1376">
<rect width="76" height="74" fill="white"/>
</clipPath>
</defs>
</svg>
